<?xml version="1.0" encoding="iso-8859-1"?>
<!-- Generator: Adobe Illustrator 18.1.1, SVG Export Plug-In . SVG Version: 6.00 Build 0)  -->
<svg version="1.1" id="Capa_1" xmlns="http://www.w3.org/2000/svg" xmlns:xlink="http://www.w3.org/1999/xlink" x="0px" y="0px"
	 viewBox="0 0 21.272 21.272" style="enable-background:new 0 0 21.272 21.272;" xml:space="preserve">
<g>
	<g>
		<g>
			<path style="fill:#010002;" d="M5.556,4.66c3.511-4.53,1.3,2.105,4.057,2.228c0.268-0.192,0.596-0.305,0.95-0.305
				c0.068,0,0.136,0.005,0.202,0.013c1.582-4.345,3.806-4.011,5.582-0.764c2.268,5.543-2.763-0.412-4.129,2.753
				c-0.086,0.197-0.176,0.355-0.295,0.536c0.033,0.036,0.067,0.074,0.102,0.113c3.143,3.643,1.754,5.456-2,5.368
				c-5.985-0.817,1.95-2.332-0.38-5.034C9.457,9.439,9.298,9.274,9.177,9.081C4.475,9.967,3.607,7.861,5.556,4.66z"/>
			<path style="fill:#010002;" d="M10.636,0c4.587,0,8.308,3.72,8.308,8.307c0,4.321-3.303,7.873-7.52,8.27v3.059h2.2v1.636H7.646
				v-1.636h2.397v-3.042c-4.311-0.304-7.715-3.898-7.715-8.287C2.329,3.72,6.049,0,10.636,0L10.636,0z M10.636,1.565
				c-3.723,0-6.742,3.019-6.742,6.742s3.02,6.743,6.742,6.743c3.724,0,6.742-3.02,6.742-6.743S14.358,1.565,10.636,1.565z"/>
		</g>
	</g>
</g>
<g>
</g>
<g>
</g>
<g>
</g>
<g>
</g>
<g>
</g>
<g>
</g>
<g>
</g>
<g>
</g>
<g>
</g>
<g>
</g>
<g>
</g>
<g>
</g>
<g>
</g>
<g>
</g>
<g>
</g>
</svg>
