<svg id="Layer_1" enable-background="new 0 0 512 512" height="512" viewBox="0 0 512 512" width="512" xmlns="http://www.w3.org/2000/svg"><path d="m497 176.733h-97.467v-49.267c0-8.284-6.716-15-15-15h-64.267c-8.284 0-15 6.716-15 15v49.267h-34.266v-113.533c0-18.351 14.841-33.2 33.2-33.2 18.307 0 33.2 14.894 33.2 33.2 0 8.284 6.716 15 15 15s15-6.716 15-15c0-34.849-28.352-63.2-63.2-63.2-34.907 0-63.2 28.243-63.2 63.2v113.533h-34.267v-49.267c0-8.284-6.716-15-15-15h-64.267c-8.284 0-15 6.716-15 15v49.267h-97.466c-8.284 0-15 6.716-15 15v32.133c0 79.272 64.136 143.534 143.533 143.534h65.333v34.267h-1.066c-8.284 0-15 6.716-15 15v32.133c0 34.849 28.352 63.2 63.2 63.2s63.2-28.352 63.2-63.2v-32.133c0-8.284-6.716-15-15-15h-1.066v-34.267h65.333c79.271 0 143.533-64.137 143.533-143.534v-32.133c0-8.284-6.716-15-15-15zm-161.733-34.266h34.267v34.267h-34.267zm-192.8 0h34.267v34.267h-34.267zm146.733 306.333c0 18.307-14.894 33.2-33.2 33.2s-33.2-14.894-33.2-33.2v-17.133h66.4zm-50.334-47.133v-34.267h34.268v34.267zm243.134-177.801c0 62.803-50.83 113.534-113.533 113.534h-224.934c-62.805 0-113.533-50.831-113.533-113.534v-17.133h452z"/></svg>