<svg height="512pt" viewBox="-92 0 512 512" width="512pt" xmlns="http://www.w3.org/2000/svg"><path d="m164 186.617188c27.113281 0 49.171875-22.0625 49.171875-49.183594 0-5.054688 0-20.433594-31.21875-67.078125-4.015625-6.003907-10.726563-9.589844-17.949219-9.589844-7.226562 0-13.9375 3.585937-17.957031 9.59375-6.007813 8.972656-14.539063 22.375-21.074219 35.257813-6.921875 13.648437-10.144531 23.753906-10.144531 31.816406 0 27.121094 22.058594 49.183594 49.171875 49.183594zm-12.273438-67.429688c3.667969-7.226562 8.109376-14.746094 12.277344-21.394531 14.96875 23.820312 19.167969 36.207031 19.167969 39.640625 0 10.578125-8.601563 19.183594-19.171875 19.183594s-19.171875-8.605469-19.171875-19.183594c0-.191406.078125-4.796875 6.898437-18.246094zm0 0"/><path d="m280.128906 0h-232.257812c-26.394532 0-47.871094 21.476562-47.871094 47.871094v367.867187c0 25.902344 20.683594 47.050781 46.402344 47.832031v33.429688c0 8.285156 6.714844 15 15 15s15-6.714844 15-15v-33.390625h175.53125v33.390625c0 8.285156 6.71875 15 15 15 8.285156 0 15-6.714844 15-15v-33.4375c25.5625-.953125 46.066406-22.035156 46.066406-47.824219v-367.867187c0-26.394532-21.476562-47.871094-47.871094-47.871094zm-232.257812 30h232.257812c9.855469 0 17.871094 8.015625 17.871094 17.871094v168.933594h-268v-168.933594c0-9.855469 8.015625-17.871094 17.871094-17.871094zm64.410156 403.609375v-79.40625h103.4375v79.40625zm167.847656 0h-34.410156v-86.296875c0-12.742188-10.367188-23.109375-23.109375-23.109375h-117.21875c-12.742187 0-23.109375 10.367187-23.109375 23.109375v86.296875h-34.410156c-9.855469 0-17.871094-8.015625-17.871094-17.871094v-168.933593h268v168.933593c0 9.855469-8.015625 17.871094-17.871094 17.871094zm0 0"/><path d="m111.472656 270.089844h-17.441406c-8.285156 0-15 6.714844-15 15 0 8.28125 6.714844 15 15 15h17.441406c8.285156 0 15-6.71875 15-15 0-8.285156-6.714844-15-15-15zm0 0"/><path d="m172.722656 269.792969h-17.445312c-8.28125 0-15 6.714843-15 15 0 8.285156 6.71875 15 15 15h17.445312c8.28125 0 15-6.714844 15-15 0-8.285157-6.714844-15-15-15zm0 0"/><path d="m233.96875 269.496094h-17.441406c-8.285156 0-15 6.71875-15 15 0 8.285156 6.714844 15 15 15h17.441406c8.285156 0 15-6.714844 15-15 0-8.28125-6.714844-15-15-15zm0 0"/></svg>