<svg height="512pt" viewBox="-94 0 512 512.0945" width="512pt" xmlns="http://www.w3.org/2000/svg"><path d="m303.5625 13.328125c-93.414062-17.769531-189.339844-17.769531-282.757812 0-12.074219 2.328125-20.789063 12.914063-20.757813 25.210937v358.308594c-.03125 12.296875 8.679687 22.878906 20.75 25.214844 10.132813 1.917969 20.289063 3.53125 30.449219 5.03125v17.636719c-.0625 12.355469 8.738281 22.976562 20.886718 25.210937 1.566407.28125 3.144532.472656 4.714844.738282v24.347656c.011719 9.421875 7.644532 17.054687 17.066406 17.066406h34.132813c9.421875-.011719 17.054687-7.644531 17.066406-17.066406v-17.425782c5.6875.191407 11.378907.378907 17.066407.378907 5.691406 0 11.378906-.1875 17.066406-.378907v17.425782c.011718 9.421875 7.648437 17.054687 17.066406 17.066406h34.136719c9.417969-.011719 17.054687-7.644531 17.066406-17.066406v-24.347656c1.570313-.265626 3.144531-.457032 4.714844-.738282 12.148437-2.234375 20.949219-12.855468 20.882812-25.210937v-17.628907c10.164063-1.503906 20.316407-3.117187 30.449219-5.035156h-.007812c12.078124-2.328125 20.792968-12.917968 20.757812-25.21875v-358.308594c.035156-12.292968-8.675781-22.878906-20.75-25.210937zm-286.449219 49.882813c96.066407-15.808594 194.070313-15.808594 290.132813 0v308.964843c-96.0625 15.8125-194.066406 15.8125-290.132813 0zm6.867188-33.117188c91.316406-17.367188 185.089843-17.367188 276.410156 0 4.015625.804688 6.894531 4.351562 6.855469 8.449219v7.546875c-96.089844-15.507813-194.042969-15.507813-290.132813 0v-7.550782c-.035156-4.097656 2.847657-7.644531 6.867188-8.445312zm104.066406 464.933594h-34.132813v-21.675782c11.359376 1.539063 22.742188 2.582032 34.132813 3.351563zm102.402344 0h-34.136719v-18.324219c11.394531-.765625 22.777344-1.808594 34.136719-3.347656zm25.597656-50.296875c.058594 4.089843-2.820313 7.632812-6.832031 8.410156-57.558594 10.367187-116.507813 10.367187-174.066406 0-4.015626-.777344-6.894532-4.320313-6.835938-8.410156v-15.394531c31.132812 3.964843 62.484375 5.984374 93.867188 6.050781 31.386718-.066407 62.734374-2.085938 93.867187-6.050781zm44.34375-39.4375h-.011719c-11.902344 2.257812-23.828125 4.207031-35.773437 5.855469l-.023438-.003907-.101562.019531c-67.867188 9.496094-136.726563 9.496094-204.597657 0l-.101562-.019531-.027344.007813c-11.945312-1.671875-23.875-3.621094-35.78125-5.855469-4.019531-.804687-6.898437-4.351563-6.859375-8.449219v-7.546875c47.960938 7.824219 96.472657 11.769531 145.066407 11.792969 48.59375-.023438 97.109374-3.96875 145.066406-11.792969v7.542969c.039062 4.097656-2.839844 7.648438-6.855469 8.449219zm0 0"/><path d="m162.179688 324.359375c70.695312 0 128-57.304687 128-128 0-70.691406-57.304688-128-128-128-70.691407 0-128 57.308594-128 128 .078124 70.660156 57.339843 127.921875 128 128zm0-238.929687c61.269531 0 110.933593 49.664062 110.933593 110.929687 0 61.269531-49.664062 110.933594-110.933593 110.933594-61.265626 0-110.933594-49.664063-110.933594-110.933594.070312-61.238281 49.695312-110.863281 110.933594-110.929687zm0 0"/><path d="m68.3125 307.292969c-14.136719 0-25.597656 11.464843-25.597656 25.601562s11.460937 25.601563 25.597656 25.601563c14.140625 0 25.601562-11.464844 25.601562-25.601563-.015624-14.132812-11.46875-25.585937-25.601562-25.601562zm0 34.136719c-4.710938 0-8.53125-3.824219-8.53125-8.535157 0-4.710937 3.820312-8.535156 8.53125-8.535156 4.714844 0 8.535156 3.824219 8.535156 8.535156-.003906 4.710938-3.824218 8.527344-8.535156 8.535157zm0 0"/><path d="m256.046875 307.292969c-14.136719 0-25.597656 11.464843-25.597656 25.601562s11.460937 25.601563 25.597656 25.601563c14.140625 0 25.601563-11.464844 25.601563-25.601563-.015626-14.132812-11.46875-25.585937-25.601563-25.601562zm0 34.136719c-4.710937 0-8.53125-3.824219-8.53125-8.535157 0-4.710937 3.820313-8.535156 8.53125-8.535156 4.714844 0 8.535156 3.824219 8.535156 8.535156-.003906 4.710938-3.824219 8.527344-8.535156 8.535157zm0 0"/><path d="m145.113281 341.429688h-17.066406c-4.710937 0-8.53125 3.820312-8.53125 8.53125 0 4.714843 3.820313 8.535156 8.53125 8.535156h17.066406c4.714844 0 8.535157-3.820313 8.535157-8.535156 0-4.710938-3.820313-8.53125-8.535157-8.53125zm0 0"/><path d="m196.3125 341.429688h-17.066406c-4.710938 0-8.53125 3.820312-8.53125 8.53125 0 4.714843 3.820312 8.535156 8.53125 8.535156h17.066406c4.714844 0 8.535156-3.820313 8.535156-8.535156 0-4.710938-3.820312-8.53125-8.535156-8.53125zm0 0"/><path d="m123.957031 280.90625c3.132813 1.4375 6.828125.847656 9.359375-1.492188 2.535156-2.34375 3.410156-5.976562 2.222656-9.214843-3.074218-9.777344-3.050781-20.265625.066407-30.03125 1.492187-4.3125 3.859375-9.324219 6.144531-14.171875 1.492188-3.164063 2.941406-6.230469 4.171875-9.152344.34375.34375.660156.703125.96875 1.070312 3.488281 4.050782 8.847656 5.960938 14.109375 5.03125 5.261719-.929687 9.644531-4.5625 11.53125-9.558593 2.101562-5.878907 3.792969-11.195313 5.074219-15.945313 8.785156 14.46875 16.460937 38.535156 6.210937 73.308594-.761718 2.578125-.261718 5.367188 1.347656 7.523438 1.609376 2.152343 4.144532 3.421874 6.832032 3.421874 1.113281 0 2.214844-.21875 3.242187-.640624 22.410157-9.21875 61.71875-39.339844 50.175781-87.414063-9.554687-39.804687-23.40625-52.644531-33.339843-56.40625-3.484375-1.316406-7.386719-.917969-10.535157 1.082031-3.0625 1.949219-5.03125 5.222656-5.316406 8.84375-.046875.675782-.125 1.535156-.230468 2.535156-10.050782-15.863281-27.09375-37.300781-49.566407-45.339843-4.605469-1.6875-9.773437-.386719-13.027343 3.285156-3.078126 3.460937-3.726563 8.457031-1.625 12.589844 2.660156 5.25 6.332031 19.425781-9.40625 46.039062-2.554688-4.355469-5.964844-8.144531-10.027344-11.140625-3.980469-2.761718-9.238282-2.832031-13.289063-.175781-3.878906 2.480469-5.871093 7.066406-5.035156 11.59375.832031 8.808594-1.355469 17.632813-6.207031 25.03125-7.765625 14.570313-9.191406 31.699219-3.945313 47.351563 6.78125 19.0625 21.363281 34.328124 40.09375 41.976562zm-21.136719-81.21875c3.46875-6.207031 6.011719-12.886719 7.542969-19.832031 1.007813 2.082031 1.878907 4.230469 2.601563 6.429687.976562 3.074219 3.601562 5.332032 6.785156 5.839844 3.183594.511719 6.386719-.816406 8.273438-3.429688 20.480468-28.433593 24.765624-48.957031 22.925781-63.140624 24.007812 15.398437 39.53125 49.335937 39.707031 49.722656 1.332031 2.960937 4.230469 4.90625 7.472656 5.023437 3.25.148438 6.296875-1.585937 7.820313-4.460937 2.910156-5.632813 4.953125-11.675782 6.058593-17.921875 8.617188 11.746093 14.375 25.34375 16.808594 39.707031 5.175782 22.675781-4.578125 46.140625-24.300781 58.472656 5.183594-28.109375-2.386719-57.070312-20.664063-79.050781-3.074218-3.550781-7.949218-4.960937-12.441406-3.59375-4.378906 1.28125-7.589844 5.027344-8.183594 9.550781-1.195312 7.285156-3.074218 14.445313-5.617187 21.378906-1.527344-1.472656-3.125-2.863281-4.792969-4.171874l-1.621094-1.332032c-3.109374-2.632812-7.359374-3.472656-11.234374-2.21875-3.824219 1.179688-6.765626 4.253906-7.78125 8.125-1.605469 4.78125-3.5625 9.4375-5.859376 13.925782-2.558593 5.171874-4.839843 10.472656-6.84375 15.882812-2.363281 6.957031-3.484374 14.277344-3.308593 21.625-7.4375-5.851562-13.03125-13.726562-16.109375-22.679688-3.769532-11.183593-2.769532-23.425781 2.761718-33.851562zm0 0"/></svg>